<svg xmlns="http://www.w3.org/2000/svg" xmlns:xlink="http://www.w3.org/1999/xlink" fill="none" version="1.1" width="16" height="16" viewBox="0 0 16 16"><defs><clipPath id="master_svg0_4_0135"><rect x="0" y="0" width="16" height="16" rx="0"/></clipPath><clipPath id="master_svg1_4_0137"><rect x="1" y="0" width="7" height="16" rx="0"/></clipPath><clipPath id="master_svg2_4_0139"><rect x="16" y="0" width="7" height="16" rx="0"/></clipPath></defs><g clip-path="url(#master_svg0_4_0135)"><rect x="0" y="0" width="16" height="16" rx="0" fill="#FF0000" fill-opacity="0"/><g clip-path="url(#master_svg1_4_0137)"><g><path d="M7.9606515625,0.338835494140625L1.2520875625,4.083376494140625L1.1053535625,4.165276494140625L1.1053535625,11.834656494140624L7.9606515625,15.661156494140625L14.8160015625,11.834656494140624L14.8160015625,4.165276494140625L7.9606515625,0.338835494140625ZM1.6778495625,4.501366494140624L1.6778495625,11.498656494140626L7.9606515625,15.005456494140626L14.2435015625,11.498656494140626L14.2435015625,4.501366494140624L7.9606515625,0.9944774941406249L1.6778495625,4.501366494140624ZM7.9606515625,14.120456494140624L13.4330015625,11.066056494140625L13.4330015625,4.933946494140625L13.2863015625,4.852036494140625L7.9606515625,1.879506494140625L2.4883115625,4.933946494140625L2.4883115625,11.066056494140625L7.9606515625,14.120456494140624ZM12.8605015625,5.270036494140625L7.9606515625,2.535146494140625L3.0608115625,5.270036494140625L3.0608115625,10.729956494140625L7.9606515625,13.464856494140625L12.8605015625,10.729956494140625L12.8605015625,5.270036494140625ZM10.1151315625,10.091676494140625Q11.0128215625,9.226206494140625,11.0128215625,7.999986494140625Q11.0128215625,6.773776494140625,10.1151315625,5.908296494140625Q9.2218515625,5.047076494140625,7.9606515625,5.047076494140625Q6.6994615625,5.047076494140625,5.8061815625,5.908296494140625Q4.9084915625,6.773776494140625,4.9084915625,7.999986494140625Q4.9084915625,9.226206494140625,5.8061815625,10.091676494140625Q6.6994615625,10.952856494140624,7.9606515625,10.952856494140624Q9.2218515625,10.952856494140624,10.1151315625,10.091676494140625ZM9.7177815625,6.320446494140625Q10.4403215625,7.017066494140625,10.4403215625,7.999986494140625Q10.4403315625,8.982916494140625,9.7177815625,9.679536494140624Q8.990821562499999,10.380406494140624,7.9606515625,10.380406494140624Q6.9304915625,10.380406494140624,6.2035315625,9.679536494140624Q5.4809915625,8.982916494140625,5.4809915625,7.999986494140625Q5.4809915625,7.017066494140625,6.2035315625,6.320446494140625Q6.9304915625,5.619566494140625,7.9606515625,5.619566494140625Q8.990821562499999,5.619566494140625,9.7177815625,6.320446494140625ZM6.7840815625,6.851106494140625Q6.2914515625,7.326066494140625,6.2914515625,7.999986494140625Q6.2914515625,8.673916494140625,6.7840815625,9.148866494140625Q7.2723015625,9.619576494140626,7.9606515625,9.619566494140624Q8.6490115625,9.619566494140624,9.1372315625,9.148866494140625Q9.6298615625,8.673916494140625,9.6298615625,7.999986494140625Q9.6298615625,7.326066494140625,9.1372315625,6.851106494140625Q8.6490115625,6.380406494140625,7.9606515625,6.380406494140625Q7.2723015625,6.380406494140625,6.7840815625,6.851106494140625ZM7.1814315625,8.736726494140624Q6.8639415625,8.430636494140625,6.8639415625,7.999986494140625Q6.8639415625,7.569346494140625,7.1814315625,7.263246494140625Q7.5033315625,6.952906494140625,7.9606515625,6.952906494140625Q8.4179815625,6.952906494140625,8.739881562499999,7.263246494140625Q9.0573715625,7.569346494140625,9.0573715625,7.999986494140625Q9.057361562499999,8.430636494140625,8.739881562499999,8.736726494140624Q8.4179815625,9.047076494140626,7.9606515625,9.047076494140626Q7.5033315625,9.047076494140626,7.1814315625,8.736726494140624Z" fill-rule="evenodd" fill="#A6A6A6" fill-opacity="1"/></g></g><g transform="matrix(-1,0,0,1,32,0)" clip-path="url(#master_svg2_4_0139)"><g><g><path d="M32.58174520874023,3.61332C32.58774520874023,3.63461,32.59094520874024,3.65656,32.59094520874024,3.67862L32.59094520874024,7.10699C32.59094520874024,7.19656,32.54044520874024,7.27928,32.458645208740236,7.32384L29.428945208740235,8.98053L29.428945208740235,12.2642C29.428945208740235,12.3536,29.378945208740234,12.4361,29.297345208740232,12.4811L22.973215208740235,15.9388C22.958745208740233,15.9466,22.942955208740234,15.9516,22.927165208740234,15.9569C22.921235208740235,15.9588,22.915645208740234,15.9623,22.909395208740236,15.9638C22.865185208740236,15.9749,22.818715208740233,15.9749,22.774505208740234,15.9638C22.767275208740234,15.9619,22.760695208740234,15.9582,22.753785208740233,15.9557C22.739305208740234,15.9507,22.724175208740235,15.9463,22.710355208740236,15.9388L16.387499208740234,12.4811C16.305743608740233,12.4365,16.255245208740234,12.3538,16.255245208740234,12.2642L16.255245208740234,1.97912C16.255245208740234,1.95663,16.258535108740233,1.93475,16.264456928740234,1.9135C16.266430908740233,1.90632,16.271036708740233,1.89976,16.273668608740234,1.89257C16.278603508740236,1.87945,16.283209308740233,1.86601,16.290447108740235,1.85382C16.295382008740233,1.8457,16.302619808740236,1.83914,16.308541608740235,1.83164C16.316108308740233,1.82164,16.323017108740235,1.81133,16.331899908740233,1.80258C16.339466608740235,1.79539,16.349336308740234,1.79008,16.357890208740233,1.78383C16.367431208740236,1.77633,16.375984208740235,1.76821,16.386841208740233,1.76227L16.387170208740233,1.76227L19.548765208740235,0.0334014C19.630235208740235,-0.0111234,19.730485208740234,-0.0111234,19.811955208740233,0.0334014L22.973545208740234,1.76227L22.974205208740234,1.76227C22.984735208740233,1.76852,22.993615208740234,1.77633,23.003155208740235,1.78352C23.011715208740235,1.78977,23.021255208740236,1.79539,23.028815208740234,1.80227C23.038035208740233,1.81133,23.044605208740236,1.82164,23.052505208740236,1.83164C23.058095208740234,1.83914,23.065665208740235,1.8457,23.070275208740235,1.85382C23.077835208740233,1.86632,23.082115208740234,1.87945,23.087375208740234,1.89257C23.090015208740233,1.89976,23.094615208740233,1.90632,23.096595208740233,1.91382C23.102645208740235,1.93511,23.105745208740235,1.95707,23.105805208740236,1.97912L23.105805208740236,8.4031L25.740355208740233,6.96232L25.740355208740233,3.67831C25.740355208740233,3.65644,25.743645208740233,3.63425,25.749565208740236,3.61332C25.751865208740234,3.60582,25.756145208740236,3.59926,25.758775208740232,3.59207C25.764045208740235,3.57895,25.768645208740235,3.56551,25.775885208740235,3.55332C25.780815208740236,3.5452,25.788055208740232,3.53864,25.793645208740234,3.53114C25.801545208740237,3.52114,25.808125208740236,3.51083,25.817335208740232,3.50208C25.824905208740233,3.49489,25.834445208740235,3.48958,25.842995208740234,3.48333C25.852865208740234,3.47583,25.861425208740236,3.46771,25.871945208740236,3.46177L25.872275208740234,3.46177L29.034245208740234,1.7329C29.115645208740233,1.68831,29.215945208740234,1.68831,29.297345208740232,1.7329L32.45894520874023,3.46177C32.470145208740234,3.46802,32.478745208740236,3.47583,32.48864520874024,3.48302C32.49684520874023,3.48927,32.506345208740235,3.49489,32.51394520874024,3.50177C32.52314520874023,3.51083,32.52974520874024,3.52114,32.53764520874023,3.53114C32.543545208740234,3.53864,32.55074520874024,3.5452,32.555345208740235,3.55332C32.56294520874023,3.56551,32.56724520874023,3.57895,32.572445208740234,3.59207C32.575445208740234,3.59926,32.579745208740235,3.60582,32.58174520874023,3.61332ZM32.06384520874023,6.96232L32.06384520874023,4.11139L30.957445208740232,4.71632L29.428945208740235,5.55216L29.428945208740235,8.4031L32.06424520874023,6.96232L32.06384520874023,6.96232ZM28.902245208740233,12.1196L28.902245208740233,9.26675L27.398745208740234,10.0823L23.105475208740234,12.4095L23.105475208740234,15.2892L28.902245208740233,12.1196ZM16.782287208740236,2.41189L16.782287208740236,12.1196L22.578435208740235,15.2889L22.578435208740235,12.4098L19.550405208740234,10.7822L19.549425208740235,10.7816L19.548105208740235,10.781C19.537905208740234,10.7753,19.529355208740235,10.7672,19.519815208740233,10.7603C19.511585208740236,10.7541,19.502045208740235,10.7491,19.494805208740235,10.7422L19.494155208740235,10.7413C19.485595208740236,10.7335,19.479675208740233,10.7238,19.472435208740233,10.715C19.465855208740233,10.7066,19.457965208740234,10.6994,19.452695208740234,10.6907L19.452365208740233,10.6897C19.446445208740233,10.6803,19.442825208740235,10.6691,19.438555208740233,10.6585C19.434275208740235,10.6491,19.428685208740234,10.6403,19.426055208740234,10.6304L19.426055208740234,10.63C19.422765208740234,10.6182,19.422105208740234,10.6057,19.420785208740234,10.5935C19.419475208740234,10.5841,19.416835208740235,10.5747,19.416835208740235,10.5654L19.416835208740235,10.5647L19.416835208740235,3.85266L17.888685208740235,3.01651L16.782287208740236,2.4122L16.782287208740236,2.41189ZM19.680685208740236,0.53897L17.046466208740235,1.97912L19.680035208740236,3.41928L22.313925208740233,1.97881L19.680035208740236,0.53897L19.680685208740236,0.53897ZM21.050605208740233,9.52672L22.578765208740236,8.69119L22.578765208740236,2.41189L21.472365208740236,3.01682L19.943885208740234,3.85266L19.943885208740234,10.132L21.050605208740233,9.52672ZM29.165845208740237,2.23847L26.531945208740233,3.67862L29.165845208740237,5.11877L31.799345208740235,3.67831L29.165845208740237,2.23847ZM28.902245208740233,5.55216L27.37374520874023,4.71632L26.267445208740234,4.11139L26.267445208740234,6.96232L27.795545208740236,7.79785L28.902245208740233,8.4031L28.902245208740233,5.55216ZM22.841625208740233,11.9768L26.704945208740234,9.882L28.636145208740235,8.83524L26.004205208740235,7.39602L22.973875208740235,9.05302L20.212005208740234,10.5632L22.841625208740233,11.9768Z" fill="#A6A6A6" fill-opacity="1" style="mix-blend-mode:passthrough"/></g></g></g></g></svg>